<svg id="Layer_1" data-name="Layer 1" xmlns="http://www.w3.org/2000/svg" viewBox="0 0 841.89 312.51"><defs><style>.cls-1{fill:#476fb6;}.cls-2{fill:#bf8c2c;}.cls-3{fill:#ffde17;}.cls-4{fill:#fff;}</style></defs><title>ePass logo</title><path class="cls-1" d="M368.72,246.43v11.5h-2.8v-11.5l-9.22-16.81h3.06l7.56,14.14,7.54-14.14h3.07Z"/><path class="cls-1" d="M384,256.94a8.31,8.31,0,0,1-3.41-3.56,12.89,12.89,0,0,1-1.15-5.67v-8.05a12.71,12.71,0,0,1,1.15-5.64,8.17,8.17,0,0,1,3.41-3.57,12.31,12.31,0,0,1,10.76,0,8.17,8.17,0,0,1,3.41,3.57,12.59,12.59,0,0,1,1.17,5.64v8a12.7,12.7,0,0,1-1.17,5.66,8.28,8.28,0,0,1-3.41,3.57,12.52,12.52,0,0,1-10.76,0Zm9.25-2.26a6,6,0,0,0,2.44-2.61,9.39,9.39,0,0,0,.83-4.18v-8.23a9.26,9.26,0,0,0-.83-4.15,6,6,0,0,0-2.53-2.62,8.77,8.77,0,0,0-7.74,0,6,6,0,0,0-2.43,2.64,9.27,9.27,0,0,0-.84,4.15V248a9.4,9.4,0,0,0,.84,4.18,5.9,5.9,0,0,0,2.43,2.61,8.77,8.77,0,0,0,7.74,0Z"/><path class="cls-1" d="M408.63,257a7.39,7.39,0,0,1-3.29-3.43,13.23,13.23,0,0,1-1.11-5.75V229.55H407V248a7.68,7.68,0,0,0,1.79,5.57,7,7,0,0,0,5.34,1.85,7.07,7.07,0,0,0,5.37-1.85,7.74,7.74,0,0,0,1.81-5.57V229.55h2.8v18.28a13.23,13.23,0,0,1-1.11,5.75,7.5,7.5,0,0,1-3.32,3.43,12.06,12.06,0,0,1-5.55,1.15A11.88,11.88,0,0,1,408.63,257Z"/><path class="cls-1" d="M430,229.53h2.79v28.34H430Zm1.73,13.76h9.66a5.52,5.52,0,0,0,2.78-.7,4.55,4.55,0,0,0,1.85-2,6.67,6.67,0,0,0,.67-2.91,6.51,6.51,0,0,0-.65-2.94,4.73,4.73,0,0,0-1.85-1.94,5.47,5.47,0,0,0-2.8-.7h-9.66v-2.61h9.5a8.75,8.75,0,0,1,4.31,1,7.12,7.12,0,0,1,2.89,2.89,9.57,9.57,0,0,1,0,8.57,7.07,7.07,0,0,1-2.89,2.87,8.86,8.86,0,0,1-4.31,1h-9.5Zm9,1.72,2.59-.88,7.25,13.74h-3.21Z"/><path class="cls-1" d="M465.85,229.53h2.82v28.34h-2.82Zm1.74,13.76h9.66a5.49,5.49,0,0,0,2.77-.7,4.49,4.49,0,0,0,1.85-2,6.26,6.26,0,0,0,.68-2.91,6.39,6.39,0,0,0-.66-2.94,4.55,4.55,0,0,0-1.85-1.94,5.44,5.44,0,0,0-2.79-.7h-9.59v-2.61h9.5a9.07,9.07,0,0,1,4.33,1,7.17,7.17,0,0,1,2.86,2.89,9.33,9.33,0,0,1,0,8.57,7,7,0,0,1-2.88,2.87,8.86,8.86,0,0,1-4.31,1h-9.5Zm9,1.72,2.59-.88,7.24,13.74h-3.34Z"/><path class="cls-1" d="M494.73,256.94a8.23,8.23,0,0,1-3.4-3.56,12.75,12.75,0,0,1-1.18-5.67v-8.05a12.6,12.6,0,0,1,1.18-5.64,8.2,8.2,0,0,1,3.4-3.57,12.34,12.34,0,0,1,10.77,0,8.2,8.2,0,0,1,3.4,3.57,12.57,12.57,0,0,1,1.15,5.64v8a12.68,12.68,0,0,1-1.15,5.66,8.25,8.25,0,0,1-3.4,3.57,12.54,12.54,0,0,1-10.77,0Zm9.25-2.26a5.92,5.92,0,0,0,2.44-2.61,9.54,9.54,0,0,0,.84-4.18v-8.23a9.27,9.27,0,0,0-.84-4.15,5.93,5.93,0,0,0-2.44-2.64,8.71,8.71,0,0,0-7.74,0,6,6,0,0,0-2.43,2.64,9.27,9.27,0,0,0-.84,4.15v8.28a9.5,9.5,0,0,0,.84,4.17,5.92,5.92,0,0,0,2.43,2.62,8.77,8.77,0,0,0,7.74,0Z"/><path class="cls-1" d="M522.55,229.55H526l10.42,28.32h-3.11l-9-25.36-9,25.36h-3.11Zm-5.62,18.84h14.9v2.55h-14.9Z"/><path class="cls-1" d="M540.26,229.55h2.82v28.32h-2.82Zm2.69,25.7h6.41a8.33,8.33,0,0,0,5.89-1.83,7.28,7.28,0,0,0,2-5.55v-8.21a7.32,7.32,0,0,0-2-5.55,8.33,8.33,0,0,0-5.89-1.83H543v-2.62h6.29a14.26,14.26,0,0,1,6,1.13,7.46,7.46,0,0,1,3.58,3.39,11.93,11.93,0,0,1,1.18,5.64v8a11.85,11.85,0,0,1-1.2,5.64,7.46,7.46,0,0,1-3.59,3.38,14.18,14.18,0,0,1-6,1.13H543Z"/><path class="cls-1" d="M597.48,229.55h2.94v28.32h-2.8V233.54l.29,1.24-8.41,19.16h-2l-8.64-18.79.29-1.65v24.32h-2.82V229.55h3l9,20.44Z"/><path class="cls-1" d="M614.31,229.55h3.39l10.44,28.32H625l-9-25.36-9,25.36h-3.11Zm-5.61,18.84h14.89v2.55H608.7Z"/><path class="cls-1" d="M636.88,258.16l-1.83-.38a15.29,15.29,0,0,1-3.43-1.18,14.12,14.12,0,0,1-3-1.94l1.7-2.25a12.26,12.26,0,0,0,3.9,2.25,13.35,13.35,0,0,0,4.65.77,9.5,9.5,0,0,0,5.64-1.44,4.7,4.7,0,0,0,2-4h0a3.77,3.77,0,0,0-.88-2.6,5.16,5.16,0,0,0-2.26-1.44,21.87,21.87,0,0,0-3.54-.9H639a37.18,37.18,0,0,1-4.76-1.18,6.87,6.87,0,0,1-3-2.07,6.16,6.16,0,0,1-1.27-4.09h0a8.42,8.42,0,0,1,1.18-4.51,7.38,7.38,0,0,1,3.45-2.84,13.9,13.9,0,0,1,5.41-1,13,13,0,0,1,3,.34,14.27,14.27,0,0,1,2.91,1,16.76,16.76,0,0,1,2.82,1.62l-1.65,2.26a15.25,15.25,0,0,0-3.58-1.92A10.06,10.06,0,0,0,640,232a8.62,8.62,0,0,0-5.37,1.47,4.81,4.81,0,0,0-1.89,4.1h0a3.32,3.32,0,0,0,1,2.51,5.57,5.57,0,0,0,2.36,1.37c.93.3,2.26.61,3.86.95h.81a27.31,27.31,0,0,1,4.52,1.26,6.86,6.86,0,0,1,3,2.26,6.26,6.26,0,0,1,1.18,4h0a7.91,7.91,0,0,1-1.22,4.51,7.64,7.64,0,0,1-3.57,2.8,14.57,14.57,0,0,1-5.62,1Z"/><path class="cls-1" d="M650.75,229.55h20v2.62h-20Zm8.69,1.08h2.8v27.08h-2.8Z"/><path class="cls-1" d="M674.22,229.55H677v28.32h-2.82Zm1.94,0H692.4v2.62H676.16Zm0,12.95h14.12v2.62H676.16Zm0,12.75H692.4v2.62H676.16Z"/><path class="cls-1" d="M697.66,229.53h2.8v28.34h-2.8Zm1.74,13.76h9.68a5.59,5.59,0,0,0,2.77-.7,4.66,4.66,0,0,0,1.85-2,6.72,6.72,0,0,0,0-5.85,4.86,4.86,0,0,0-1.85-1.94,5.46,5.46,0,0,0-2.79-.7h-9.66v-2.61h9.5a9,9,0,0,1,4.31,1,7.18,7.18,0,0,1,2.89,2.89,9.57,9.57,0,0,1,0,8.57,7.13,7.13,0,0,1-2.89,2.87,9.09,9.09,0,0,1-4.31,1h-9.5Zm9,1.72,2.6-.88,7.24,13.74h-3.32Z"/><path class="cls-1" d="M733.56,229.55h2.82v28.32h-2.82Zm2.05,14.73h9a5.71,5.71,0,0,0,2.94-.76,5.09,5.09,0,0,0,1.94-2.12,7,7,0,0,0,.7-3.16,6.72,6.72,0,0,0-.7-3.18,5.11,5.11,0,0,0-1.94-2.15,5.82,5.82,0,0,0-2.94-.74h-9v-2.62h8.91a9,9,0,0,1,4.51,1.08,7.48,7.48,0,0,1,3,3.05,10.21,10.21,0,0,1,0,9,7.37,7.37,0,0,1-3,3,9,9,0,0,1-4.51,1.08h-8.91Z"/><path class="cls-1" d="M764,229.55h3.38l10.45,28.32h-3.11l-9-25.36-9,25.36H753.5Zm-5.62,18.84h14.89v2.55H758.33Z"/><path class="cls-1" d="M786.56,258.16l-1.83-.38a14.72,14.72,0,0,1-6.39-3.12l1.7-2.25a12.07,12.07,0,0,0,3.92,2.25,13.39,13.39,0,0,0,4.65.77,9.5,9.5,0,0,0,5.64-1.44,4.66,4.66,0,0,0,2-4h0a3.83,3.83,0,0,0-.85-2.6,5.51,5.51,0,0,0-2.26-1.44,21.61,21.61,0,0,0-3.54-.9h-.84a37.89,37.89,0,0,1-4.78-1.18,6.87,6.87,0,0,1-3-2.07,6.2,6.2,0,0,1-1.25-4.09h0a8.24,8.24,0,0,1,1.18-4.51,7.33,7.33,0,0,1,3.43-2.84,14,14,0,0,1,5.43-1,12.8,12.8,0,0,1,3,.34,13.69,13.69,0,0,1,2.91,1,18.11,18.11,0,0,1,2.84,1.62l-1.67,2.26a15.7,15.7,0,0,0-3.56-1.92,10.06,10.06,0,0,0-3.48-.63,8.49,8.49,0,0,0-5.37,1.47,4.79,4.79,0,0,0-1.91,4.1h0a3.35,3.35,0,0,0,.94,2.51,6,6,0,0,0,2.37,1.37c1,.3,2.26.61,3.88.95h.79a27.31,27.31,0,0,1,4.52,1.26,6.86,6.86,0,0,1,2.93,2.26,6.28,6.28,0,0,1,1.2,4h0a7.69,7.69,0,0,1-1.25,4.51,7.52,7.52,0,0,1-3.54,2.8,14.57,14.57,0,0,1-5.62,1Z"/><path class="cls-1" d="M809.93,258.16l-1.83-.38a15.05,15.05,0,0,1-3.4-1.18,14.67,14.67,0,0,1-3-1.94l1.69-2.25a12.41,12.41,0,0,0,3.93,2.25,13.34,13.34,0,0,0,4.64.77,9.49,9.49,0,0,0,5.64-1.44,4.69,4.69,0,0,0,2-4h0a3.84,3.84,0,0,0-.86-2.6,5.48,5.48,0,0,0-2.25-1.44A21.73,21.73,0,0,0,813,245h-.79a37.89,37.89,0,0,1-4.78-1.18,7,7,0,0,1-3-2.07,6.24,6.24,0,0,1-1.24-4.09h0a8.24,8.24,0,0,1,1.18-4.51,7.33,7.33,0,0,1,3.43-2.84,14,14,0,0,1,5.43-1,12.91,12.91,0,0,1,3,.34,13.33,13.33,0,0,1,2.89,1,18.11,18.11,0,0,1,2.84,1.62l-1.67,2.26a15.7,15.7,0,0,0-3.56-1.92,10.06,10.06,0,0,0-3.48-.63,8.55,8.55,0,0,0-5.37,1.47,4.79,4.79,0,0,0-1.91,4.1h0a3.35,3.35,0,0,0,.94,2.51,6,6,0,0,0,2.37,1.37c1,.3,2.26.61,3.88.95h.79a27.31,27.31,0,0,1,4.52,1.26,6.86,6.86,0,0,1,2.93,2.26,6.28,6.28,0,0,1,1.2,4h0a7.69,7.69,0,0,1-1.25,4.51,7.52,7.52,0,0,1-3.54,2.8,14.57,14.57,0,0,1-5.62,1Z"/><path class="cls-1" d="M387.38,199.05l-10-5.1A35.22,35.22,0,0,1,362.13,179a49.47,49.47,0,0,1-5.25-23.62v-11a55.5,55.5,0,0,1,5-24.71,35,35,0,0,1,14.66-15.59,47.19,47.19,0,0,1,23.24-5.37,37.21,37.21,0,0,1,21.91,6.41,39.31,39.31,0,0,1,13.85,18.54A81.21,81.21,0,0,1,440.31,153v6.38H373.57V142h43.21l-.27-2.26a22.66,22.66,0,0,0-5.26-12.92,14.82,14.82,0,0,0-11.41-4.63,18.64,18.64,0,0,0-14.42,5.55q-5.13,5.55-5.12,15.79V156a20.53,20.53,0,0,0,5.59,15.41,21.35,21.35,0,0,0,15.64,5.46A29.84,29.84,0,0,0,411.77,175a31.32,31.32,0,0,0,9.23-5.21l16.81,14.94a56.75,56.75,0,0,1-17.1,10.76,51.34,51.34,0,0,1-19.18,3.79Z"/><path class="cls-1" d="M455.09,61h25.74V197.67H455.09Zm11.73,58.84h43.71a15.53,15.53,0,0,0,8.12-2.12,14.66,14.66,0,0,0,5.41-6,19,19,0,0,0,2-8.82,20.07,20.07,0,0,0-1.92-9,14,14,0,0,0-5.46-6,15.58,15.58,0,0,0-8.21-2.13H466.82V61h43.05a46.68,46.68,0,0,1,22.56,5.23,37.14,37.14,0,0,1,15.1,14.69,44.17,44.17,0,0,1,5.35,22,43.83,43.83,0,0,1-5.35,21.93,37,37,0,0,1-15.1,14.62,47.22,47.22,0,0,1-22.56,5.17H466.82Z"/><path class="cls-1" d="M561.74,191.6Q554,184.16,554,168.9q0-14.43,8.69-21.7T588.77,140h24.42l1.33,19.63H588.86a14,14,0,0,0-8.75,2.25,8.39,8.39,0,0,0-2.91,7,7.77,7.77,0,0,0,3.68,7.1A21,21,0,0,0,592,178.22,38.27,38.27,0,0,0,607.32,176a7.71,7.71,0,0,0,5-7.33l2,14.19a13.23,13.23,0,0,1-4.82,9,27.93,27.93,0,0,1-10.72,5.5,49.18,49.18,0,0,1-13.54,1.83Q569.53,199,561.74,191.6Zm50.61-55.73a12.75,12.75,0,0,0-4.51-10.45,19.8,19.8,0,0,0-12.77-3.65,33.65,33.65,0,0,0-10.81,1.78,31.66,31.66,0,0,0-9.5,5l-16-15.8a38.5,38.5,0,0,1,15.41-10.37,58.05,58.05,0,0,1,21.23-3.73,50.55,50.55,0,0,1,21.79,4.29A30.72,30.72,0,0,1,631,115.34a38.26,38.26,0,0,1,4.74,19.58v62.75h-23.4Z"/><path class="cls-1" d="M680.06,199.05l-8.28-1.54a77.52,77.52,0,0,1-15.5-4.51,57.52,57.52,0,0,1-12.77-7.24l15.79-19.84a61.92,61.92,0,0,0,14.74,7,47.8,47.8,0,0,0,14.66,2.46,38.3,38.3,0,0,0,14-2c3.32-1.35,5-3.2,5-5.59a5.91,5.91,0,0,0-2.26-5,13.25,13.25,0,0,0-5.39-2.43c-2.25-.46-5.41-.88-9.5-1.27l-3.43-.36-3.52-.38a4.22,4.22,0,0,0-.79-.14,5.48,5.48,0,0,0-.81,0,103.82,103.82,0,0,1-17.46-3.49,22.5,22.5,0,0,1-11.15-7.92q-4.51-5.9-4.51-17.06a27.6,27.6,0,0,1,18.32-27.3,57.33,57.33,0,0,1,21.57-3.68,75.07,75.07,0,0,1,14.8,1.51,76.08,76.08,0,0,1,14.15,4.33,68.31,68.31,0,0,1,12.5,6.77L714.9,130a62.8,62.8,0,0,0-13.31-5.41,48.77,48.77,0,0,0-13.36-2,33.29,33.29,0,0,0-12.12,1.79c-2.89,1.19-4.33,2.86-4.33,5a4.26,4.26,0,0,0,2.26,3.82,17.39,17.39,0,0,0,5.73,2c2.25.4,5.64.86,10,1.38l1.69.18,1.69.18a3.84,3.84,0,0,0,.83,0,4.12,4.12,0,0,1,.86,0,117.14,117.14,0,0,1,18.5,3.38,24.19,24.19,0,0,1,12.19,8.28c3.34,4.13,5,10.22,5,18.23a28.83,28.83,0,0,1-19.18,28.43,60.66,60.66,0,0,1-22.63,3.84Z"/><path class="cls-1" d="M770.22,199.05,762,197.51a77.52,77.52,0,0,1-15.5-4.51,57.43,57.43,0,0,1-12.79-7.24l15.79-19.84a61.67,61.67,0,0,0,14.76,7,47.8,47.8,0,0,0,14.66,2.46,38.19,38.19,0,0,0,14-2c3.32-1.35,5-3.2,5-5.59a5.91,5.91,0,0,0-2.26-5,13.29,13.29,0,0,0-5.3-2.43c-2.26-.46-5.41-.88-9.48-1.27l-3.42-.36-3.52-.38a4.54,4.54,0,0,0-.82-.14,5.21,5.21,0,0,0-.79,0,104.24,104.24,0,0,1-17.48-3.49,22.49,22.49,0,0,1-11.13-7.92q-4.5-5.9-4.51-17.06a27.6,27.6,0,0,1,18.32-27.3A57.63,57.63,0,0,1,779,98.71a75.8,75.8,0,0,1,28.92,5.84,67.07,67.07,0,0,1,12.5,6.77L805.12,130a61.53,61.53,0,0,0-13.37-5.41,48.57,48.57,0,0,0-13.34-2,33.18,33.18,0,0,0-12.14,1.79c-2.86,1.19-4.31,2.86-4.31,5a4.26,4.26,0,0,0,2.26,3.82,17.39,17.39,0,0,0,5.73,2c2.26.4,5.62.86,10,1.38l1.7.18,1.69.18a4.12,4.12,0,0,0,.86,0,3.84,3.84,0,0,1,.83,0,117.72,117.72,0,0,1,18.53,3.38,24.09,24.09,0,0,1,12.16,8.28c3.36,4.13,5,10.22,5,18.23a28.83,28.83,0,0,1-19.18,28.43A60.6,60.6,0,0,1,779,199.05Z"/><ellipse class="cls-1" cx="160.52" cy="157.44" rx="148.39" ry="149.07"/><path class="cls-2" d="M307.46,181.56a122.11,122.11,0,0,1-13.17,41.7c-18.05,36.28-46.48,61.27-84.43,75.33a32.15,32.15,0,0,1-3.86.88,35.84,35.84,0,0,1-6-4q-32-31.81-63.67-63.81a21.57,21.57,0,0,1-2.6-4.82c7.29,4.21,14.62,8.37,21.89,12.68a7.14,7.14,0,0,0,8,0c6.47-3.86,13.33-7.16,19.61-11.29,17.53-11.57,31.09-26.6,36.23-47.63A130.71,130.71,0,0,0,223,153.56c.56-19.81.24-39.64.27-59.45,1.35,1.15,2.77,2.25,4,3.49q37.91,38.06,75.63,76.13A35.48,35.48,0,0,1,307.46,181.56Z"/><path class="cls-3" d="M191.72,88C161.64,79.31,161,74.07,161,73.73h0s-.7,5.44-31.81,14.4-31.81,6.32-31.81,6.32V170c0,43.66,63.17,71.12,63.17,71.12s62.95-27.6,62.95-71.26V94.27S223.08,97,191.72,88Z"/><ellipse class="cls-4" cx="160.56" cy="151.89" rx="38.74" ry="38.92"/><path class="cls-1" d="M128.41,173.69c-13.54-20.45-6.18-42.87,11-54.33,20.81-13.84,51.33-4.86,58.94,23.28,3,11.28.4,21.43-5.67,31a44.82,44.82,0,0,0-63.39-.79Q128.82,173.26,128.41,173.69Zm32.22-19.77a16.47,16.47,0,0,0,16.67-16.26v-.39a16.79,16.79,0,1,0-16.92,16.65Z"/></svg>